<?xml version="1.0" encoding="UTF-8" standalone="no"?>
<svg width="84px" height="84px" viewBox="0 0 84 84" version="1.1" xmlns="http://www.w3.org/2000/svg" xmlns:xlink="http://www.w3.org/1999/xlink">
    <!-- Generator: Sketch Beta 47 (45292) - http://www.bohemiancoding.com/sketch -->
    <title>airplane</title>
    <desc>Created with Sketch Beta.</desc>
    <defs></defs>
    <g id="Page-1" stroke="none" stroke-width="1" fill="none" fill-rule="evenodd">
        <g id="Storage-Items---Drop-down" transform="translate(-146.000000, -444.000000)" fill-rule="nonzero" fill="#FFFFFF">
            <g id="Storages" transform="translate(72.000000, 138.000000)">
                <g id="Item-Requests-(20)" transform="translate(0.000000, 253.000000)">
                    <g id="airplane" transform="translate(74.000000, 53.000000)">
                        <path d="M37.3911913,17.5893473 L40.6736989,14.3055264 C41.4057891,13.5745436 42.5956107,13.5745436 43.3277008,14.3055264 L46.6102085,17.5893473 C46.8831675,17.8624156 47.2415138,17.9996499 47.59986,17.9996499 C47.9582063,17.9996499 48.3165525,17.8624156 48.5895116,17.5893473 C49.1368295,17.0418105 49.1368295,16.1567892 48.5895116,15.6092523 L45.3070039,12.3254314 C43.5404689,10.5581895 40.4595311,10.5581895 38.6929961,12.3254314 L35.4104884,15.6092523 C34.8631705,16.1567892 34.8631705,17.0418105 35.4104884,17.5893473 C35.9578063,18.1368842 36.8438734,18.1368842 37.3911913,17.5893473 Z" id="Shape"></path>
                        <path d="M82.7526,44.9778 L79.8,43.1564 L79.8,35.7 C79.8,32.998 77.602,30.8 74.9,30.8 C72.198,30.8 70,32.998 70,35.7 L70,37.1084 L67.2,35.3808 L67.2,25.9 C67.2,23.198 65.002,21 62.3,21 C59.598,21 57.4,23.198 57.4,25.9 L57.4,29.3328 L54.6056,27.608 C54.6168,24.6428 54.6028,22.7108 54.6,22.4 C54.6,17.5518 53.746,13.104 52.0632,9.1826 C50.6996,6.006 46.8426,0 42,0 C37.1574,0 33.3004,6.006 31.9368,9.1826 C30.254,13.104 29.4,17.5518 29.4,22.3888 C29.3972,22.7024 29.3832,24.6372 29.3958,27.608 L26.6,29.3328 L26.6,25.9 C26.6,23.198 24.402,21 21.7,21 C18.998,21 16.8,23.198 16.8,25.9 L16.8,35.3794 L14,37.107 L14,35.7 C14,32.998 11.802,30.8 9.1,30.8 C6.398,30.8 4.2,32.998 4.2,35.7 L4.2,43.1564 L1.2474,44.9778 C0.4872,45.3796 0,46.1804 0,47.0456 L0,54.6 C0,55.3336 0.3346,56.0112 0.9184,56.4564 C1.3328,56.7728 1.8256,56.9366 2.3296,56.9366 C2.5354,56.9366 2.7454,56.9086 2.9512,56.8526 L3.3446,56.6762 C10.4398,52.066 20.6052,50.6086 29.8802,49.448 C30.2162,57.1998 30.779,65.1182 31.7156,70.9912 L24.7254,74.6718 L24.4328,74.8776 C24.031,75.2458 23.8,75.7694 23.8,76.3126 L23.8,82.054 C23.8,82.7722 24.1934,83.4288 24.8262,83.769 C25.3904,84.07 26.0568,84.0756 26.6182,83.7928 L42,78.5526 L57.3804,83.7928 C57.6548,83.93 57.9544,84 58.254,84 C58.569,84 58.884,83.9244 59.1724,83.769 C59.8066,83.4288 60.2,82.7722 60.2,82.054 L60.2,76.3126 C60.2,75.768 59.969,75.2458 59.5686,74.8776 L52.2802,71.0178 C53.2196,65.142 53.7838,57.211 54.1198,49.448 C63.3668,50.6044 73.5504,52.059 80.6554,56.6762 L81.0488,56.8526 C81.2546,56.9086 81.4632,56.9366 81.6704,56.9366 C82.1744,56.9366 82.6672,56.7728 83.0816,56.4564 C83.6654,56.0112 84,55.335 84,54.6 L84,47.0456 C84,46.1804 83.5128,45.3796 82.7526,44.9778 Z M19.6,25.9 C19.6,24.7422 20.5422,23.8 21.7,23.8 C22.8578,23.8 23.8,24.7422 23.8,25.9 L23.8,29.617 L19.6,32.4772 L19.6,25.9 Z M7,35.7 C7,34.5422 7.9422,33.6 9.1,33.6 C10.2578,33.6 11.2,34.5422 11.2,35.7 L11.2,38.1962 L7,41.0564 L7,35.7 Z M2.8,53.7194 L2.8,47.3102 L29.3986,30.8952 C29.4168,33.81 29.4756,38.1612 29.6478,43.0192 C29.6828,44.2092 29.7234,45.4174 29.7682,46.6396 C20.5604,47.789 10.4006,49.2058 2.8,53.7194 Z M32.2,22.4 C32.2,17.934 32.977,13.8572 34.51,10.2872 C36.0682,6.6584 39.2224,2.8 42,2.8 C44.7776,2.8 47.9318,6.657 49.49,10.2872 C51.023,13.8586 51.8,17.934 51.8,22.4112 C51.8,22.4756 51.8098,23.7594 51.8056,25.879 L51.8056,25.879 L51.8056,26.075 C51.7958,30.184 51.7356,37.2862 51.4766,44.9974 C51.4388,45.92 51.3968,46.8538 51.3492,47.796 L51.3324,48.8054 C51.0202,56.245 50.5078,63.8666 49.665,69.6122 L43.365,66.2956 L43.1536,66.1836 C43.0388,66.0968 42.9058,66.0464 42.7756,65.989 C42.2884,65.7776 41.7298,65.7734 41.2412,65.9806 C41.104,66.038 40.9654,66.094 40.845,66.1836 L34.3336,69.6122 C33.502,63.9422 32.9924,56.4466 32.6788,49.0994 L32.7152,49.0952 L32.6508,47.796 C32.6032,46.8538 32.5626,45.9214 32.5248,45.0002 C32.2658,37.2876 32.2056,30.1826 32.1958,26.0708 L32.1958,25.879 L32.1958,25.879 C32.1902,23.7552 32.2,22.4658 32.2,22.4 Z M57.4,76.8502 L57.4,80.8416 L42.8232,75.8758 C42.301,75.6266 41.699,75.6266 41.1768,75.8758 L26.6,80.8402 L26.6,76.8488 L42,68.74 L57.4,76.8502 Z M72.8,35.7 C72.8,34.5422 73.7422,33.6 74.9,33.6 C76.0578,33.6 77,34.5422 77,35.7 L77,41.0564 L72.8,38.1962 L72.8,35.7 Z M60.2,25.9 C60.2,24.7422 61.1422,23.8 62.3,23.8 C63.4578,23.8 64.4,24.7422 64.4,25.9 L64.4,32.4772 L60.2,29.617 L60.2,25.9 Z M81.2,53.7194 C73.6106,49.2128 63.4662,47.7932 54.2318,46.641 C54.2766,45.4174 54.3172,44.2064 54.3522,43.015 C54.5244,38.1598 54.5832,33.81 54.6014,30.8966 L81.2,47.3102 L81.2,53.7194 Z" id="Shape"></path>
                    </g>
                </g>
            </g>
        </g>
    </g>
</svg>