<?xml version="1.0" encoding="UTF-8" standalone="no"?>
<svg width="26px" height="26px" viewBox="0 0 26 26" version="1.1" xmlns="http://www.w3.org/2000/svg" xmlns:xlink="http://www.w3.org/1999/xlink">
    <!-- Generator: sketchtool 47 (45292) - http://www.bohemiancoding.com/sketch -->
    <title>B0775FDC-D5BA-4CB2-B482-6EBFF4B7F23E</title>
    <desc>Created with sketchtool.</desc>
    <defs></defs>
    <g id="Page-1" stroke="none" stroke-width="1" fill="none" fill-rule="evenodd">
        <g id="Desc-Request-Items" transform="translate(-585.000000, -251.000000)" fill="#0B7BFB">
            <g id="Check-boxes" transform="translate(585.000000, 251.000000)">
                <path d="M23.4,3.9 C23.4,3.1824 22.8176,2.6 22.1,2.6 L3.9,2.6 C3.1824,2.6 2.6,3.1824 2.6,3.9 L2.6,22.1 C2.6,22.8176 3.1824,23.4 3.9,23.4 L22.1,23.4 C22.8176,23.4 23.4,22.8176 23.4,22.1 L23.4,3.9 Z M26,2.6 L26,23.4 C26,24.8365 24.8365,26 23.4,26 L2.6,26 C1.1635,26 0,24.8365 0,23.4 L0,2.6 C0,1.1635 1.1635,0 2.6,0 L23.4,0 C24.8365,0 26,1.1635 26,2.6 L26,2.6 Z M18.2273,9.1195 C18.7356,9.6265 18.7356,10.4507 18.2273,10.9577 L13.1729,16.0121 C12.4098,16.7739 11.1748,16.7739 10.4117,16.0121 L8.1146,13.715 C7.6076,13.208 7.6076,12.3851 8.1146,11.8768 C8.6229,11.3698 9.4458,11.3698 9.9528,11.8768 L10.8706,12.7946 C11.3789,13.3029 12.2044,13.3029 12.714,12.7946 L16.3891,9.1195 C16.8961,8.6112 17.7203,8.6112 18.2273,9.1195 L18.2273,9.1195 Z" id="done-[#1477]"></path>
            </g>
        </g>
    </g>
</svg>