<?xml version="1.0" encoding="UTF-8" standalone="no"?>
<svg width="84px" height="76px" viewBox="0 0 84 76" version="1.1" xmlns="http://www.w3.org/2000/svg" xmlns:xlink="http://www.w3.org/1999/xlink">
    <!-- Generator: Sketch Beta 47 (45292) - http://www.bohemiancoding.com/sketch -->
    <title>luggage</title>
    <desc>Created with Sketch Beta.</desc>
    <defs></defs>
    <g id="Page-1" stroke="none" stroke-width="1" fill="none" fill-rule="evenodd">
        <g id="Storage-Items---Drop-down" transform="translate(-146.000000, -195.000000)" fill-rule="nonzero" fill="#FFFFFF">
            <g id="Storages" transform="translate(72.000000, 138.000000)">
                <g id="Luggage-Storage-(20)">
                    <g id="luggage" transform="translate(74.000000, 57.000000)">
                        <path d="M77.1988,15.4814815 L71.3244,15.4814815 L70,15.4814815 L70,11.2592593 L58.8,11.2592593 L58.8,15.4814815 L57.4,15.4814815 C57.4,6.94555556 50.491,0 42,0 C33.509,0 26.6,6.94555556 26.6,15.4814815 L25.2,15.4814815 L25.2,11.2592593 L14,11.2592593 L14,15.4814815 L12.6756,15.4814815 L6.8012,15.4814815 C3.052,15.4814815 0,18.5496296 0,22.3186667 L0,28.2241481 L0,63.2573333 L0,69.1628148 C0,72.9332593 3.052,76 6.8012,76 L12.6756,76 L14,76 L25.2,76 L58.8,76 L70,76 L71.3244,76 L77.1988,76 C80.948,76 84,72.9332593 84,69.1628148 L84,63.2573333 L84,28.2241481 L84,22.3186667 C84,18.5496296 80.948,15.4814815 77.1988,15.4814815 Z M77.1988,18.2962963 C79.4052,18.2962963 81.2,20.1005926 81.2,22.3186667 L81.2,24.7197037 C78.2264,23.6599259 75.8632,21.2856296 74.8104,18.2962963 C74.8104,18.2962963 77.1988,18.2962963 77.1988,18.2962963 Z M61.6,14.0740741 L67.2,14.0740741 L67.2,15.4814815 L61.6,15.4814815 L61.6,14.0740741 Z M42,2.81481481 C48.9468,2.81481481 54.6,8.49792593 54.6,15.4814815 L51.8,15.4814815 C51.8,10.0488889 47.404,5.62962963 42,5.62962963 C36.596,5.62962963 32.2,10.0488889 32.2,15.4814815 L29.4,15.4814815 C29.4,8.49792593 35.0532,2.81481481 42,2.81481481 Z M49,15.4814815 L35,15.4814815 C35,11.6012593 38.1402,8.44444444 42,8.44444444 C45.8598,8.44444444 49,11.6012593 49,15.4814815 Z M16.8,14.0740741 L22.4,14.0740741 L22.4,15.4814815 L16.8,15.4814815 L16.8,14.0740741 Z M2.8,22.3186667 C2.8,20.1005926 4.5948,18.2962963 6.8012,18.2962963 L9.1896,18.2962963 C8.1368,21.2856296 5.7736,23.6599259 2.8,24.7197037 L2.8,22.3186667 Z M6.8012,73.1851852 C4.5948,73.1851852 2.8,71.3808889 2.8,69.1628148 L2.8,66.7603704 C5.7736,67.8201481 8.1354,70.1944444 9.1896,73.1837778 L6.8012,73.1837778 L6.8012,73.1851852 Z M12.082,73.1851852 C10.8458,68.6547407 7.3066,65.0968148 2.8,63.8540741 L2.8,27.6274074 C7.3066,26.3846667 10.8458,22.8267407 12.082,18.2962963 L14,18.2962963 L14,73.1851852 L12.082,73.1851852 Z M16.8,73.1851852 L16.8,18.2962963 L22.4,18.2962963 L22.4,73.1851852 L16.8,73.1851852 Z M25.2,73.1851852 L25.2,18.2962963 L26.6,18.2962963 L32.2,18.2962963 L51.8,18.2962963 L57.4,18.2962963 L58.8,18.2962963 L58.8,73.1851852 L25.2,73.1851852 Z M61.6,73.1851852 L61.6,18.2962963 L67.2,18.2962963 L67.2,73.1851852 L61.6,73.1851852 Z M70,73.1851852 L70,18.2962963 L71.918,18.2962963 C73.1542,22.8267407 76.692,26.3846667 81.2,27.6274074 L81.2,63.8540741 C76.6934,65.0968148 73.1542,68.6547407 71.918,73.1851852 L70,73.1851852 Z M81.2,69.1628148 C81.2,71.3808889 79.4052,73.1851852 77.1988,73.1851852 L74.8104,73.1851852 C75.8646,70.1958519 78.2264,67.8215556 81.2,66.7617778 C81.2,66.7617778 81.2,69.1628148 81.2,69.1628148 Z" id="Shape"></path>
                        <path d="M50.8769992,26 L32.4937904,34.3624644 L34.381834,38.3028709 L32.381559,38.3028709 L32.381559,45.5248735 L30.4565785,44.7331936 L26,55.0250316 L40.5346684,61 L43.1728152,54.9115391 L56.5326062,54.9115391 L56.5326062,38.9893625 L57,38.776218 L50.8769992,26 Z M36,36.2826645 L49.2706553,30 L53,38.1 L51.0954416,39 L37.2507123,39 L36,36.2826645 Z M39.6631812,57 L30,53.1827396 L32.3353426,48 L32.7634395,48.1686118 L32.7634395,48.1686118 L42,51.8172604 L40.7718047,54.5426904 L40.7718047,54.5426904 L39.6631812,57 Z M53,41 L53,52 L43.9169231,52 L44.522,50.574125 L35,46.58525 L35,41 L35.4735385,41 L51.3093846,41 L53,41 Z" id="Shape"></path>
                    </g>
                </g>
            </g>
        </g>
    </g>
</svg>