<?xml version="1.0" encoding="UTF-8" standalone="no"?>
<svg width="88px" height="105px" viewBox="0 0 88 105" version="1.1" xmlns="http://www.w3.org/2000/svg" xmlns:xlink="http://www.w3.org/1999/xlink">
    <!-- Generator: Sketch Beta 47 (45292) - http://www.bohemiancoding.com/sketch -->
    <title>Oversized</title>
    <desc>Created with Sketch Beta.</desc>
    <defs></defs>
    <g id="Page-1" stroke="none" stroke-width="1" fill="none" fill-rule="evenodd">
        <g id="1.-Storage-Items---I-know-what-to-order" transform="translate(-391.000000, -1122.000000)" fill="#FFFFFF">
            <g id="boxes" transform="translate(391.000000, 1122.000000)">
                <g id="Oversized">
                    <path d="M85.7774884,26.0586621 L54.6132093,26.0586621 L54.6132093,2.0915918 C54.6132093,0.936591797 53.6785674,0 52.5259721,0 L2.22251163,0 C1.06991628,0 0.135274419,0.936591797 0.135274419,2.0915918 L0.135274419,102.908408 C0.135274419,104.063408 1.06991628,105 2.22251163,105 L52.5259721,105 L85.7774884,105 C86.9300837,105 87.8647256,104.063408 87.8647256,102.908408 L87.8647256,28.1502539 C87.8647256,26.9952539 86.9300837,26.0586621 85.7774884,26.0586621 Z M31.7575628,100.816816 L31.7575628,95.0104395 L35.3023256,98.274873 C36.1008744,99.0102832 37.3283721,99.0102832 38.1271256,98.274873 L41.6718884,95.0104395 L41.6718884,100.816816 L31.7575628,100.816816 Z M50.4383256,100.816816 L45.8463628,100.816816 L45.8463628,90.2475 C45.8463628,89.4175488 45.3566326,88.6659375 44.5984,88.3324805 C43.8403721,87.9990234 42.9566884,88.1460645 42.3468279,88.7075684 L36.7146233,93.8944043 L31.0824186,88.7075684 C30.4723535,88.1460645 29.5886698,87.9988184 28.8308465,88.3324805 C28.0724093,88.6663477 27.5828837,89.4175488 27.5828837,90.2475 L27.5828837,100.816816 L4.30995349,100.816816 L4.30995349,54.5915918 L27.5830884,54.5915918 L27.5830884,65.2265332 C27.5830884,66.0566895 28.0732279,66.8085059 28.8314605,67.1417578 C29.590307,67.4752148 30.4735814,67.3281738 31.0834419,66.7656445 L36.7146233,61.5742969 L42.3458047,66.7656445 C42.7389395,67.1278125 43.2456558,67.318125 43.7593302,67.318125 C44.0425674,67.318125 44.3280558,67.260498 44.597786,67.1417578 C45.3562233,66.8080957 45.8461581,66.0566895 45.8461581,65.2265332 L45.8461581,54.5915918 L50.4381209,54.5915918 L50.4381209,100.816816 L50.4383256,100.816816 Z M31.7577674,54.5915918 L41.672093,54.5915918 L41.672093,60.4601074 L38.1281488,57.1930078 C37.3291907,56.4565723 36.1008744,56.4565723 35.3017116,57.1930078 L31.7577674,60.4601074 L31.7577674,54.5915918 L31.7577674,54.5915918 Z M50.4387349,50.4084082 L4.30995349,50.4084082 L4.30995349,4.18318359 L50.4387349,4.18318359 L50.4387349,50.4084082 Z M83.6900465,100.816816 L54.6132093,100.816816 L54.6132093,30.2418457 L83.6900465,30.2418457 L83.6900465,100.816816 L83.6900465,100.816816 Z" id="Shape"></path>
                    <path d="M43.9997953,29.2623926 L20.7663628,29.2623926 C19.6137674,29.2623926 18.6791256,30.1989844 18.6791256,31.3539844 L18.6791256,43.9560352 C18.6791256,45.1110352 19.6137674,46.047627 20.7663628,46.047627 L43.9997953,46.047627 C45.1523907,46.047627 46.0870326,45.1110352 46.0870326,43.9560352 L46.0870326,31.3539844 C46.0872372,30.1989844 45.1525953,29.2623926 43.9997953,29.2623926 Z M41.9125581,41.8644434 L22.8536,41.8644434 L22.8536,33.4455762 L41.9125581,33.4455762 L41.9125581,41.8644434 Z" id="Shape"></path>
                    <path d="M23.7344186,69.9205664 L17.8762791,64.0502051 C17.0609488,63.233584 15.7397209,63.233584 14.924186,64.0502051 L9.06604651,69.9205664 C8.25092093,70.7373926 8.25092093,72.0617871 9.06604651,72.8788184 C9.88137674,73.6954395 11.2026047,73.6954395 12.0181395,72.8788184 L14.3130977,70.5790723 L14.3130977,88.850918 C14.3130977,90.005918 15.2477395,90.9425098 16.4003349,90.9425098 C17.5529302,90.9425098 18.4875721,90.005918 18.4875721,88.850918 L18.4875721,70.5790723 L20.7825302,72.8788184 C21.1901953,73.2871289 21.7243349,73.4913867 22.2584744,73.4913867 C22.792614,73.4913867 23.3267535,73.2871289 23.7344186,72.8788184 C24.5495442,72.0617871 24.5495442,70.7373926 23.7344186,69.9205664 Z" id="Shape"></path>
                    <path d="M38.4580465,21.1460156 L20.979814,21.1460156 C19.8272186,21.1460156 18.8925767,22.0826074 18.8925767,23.2376074 C18.8925767,24.3926074 19.827014,25.3291992 20.979814,25.3291992 L38.4580465,25.3291992 C39.6106419,25.3291992 40.5452837,24.3926074 40.5452837,23.2376074 C40.5452837,22.0826074 39.6106419,21.1460156 38.4580465,21.1460156 Z" id="Shape"></path>
                    <path d="M29.9320744,14.9516309 L20.979814,14.9516309 C19.8272186,14.9516309 18.8925767,15.8882227 18.8925767,17.0432227 C18.8925767,18.1982227 19.827014,19.1348145 20.979814,19.1348145 L29.9320744,19.1348145 C31.0846698,19.1348145 32.0193116,18.1982227 32.0193116,17.0432227 C32.0193116,15.8882227 31.0846698,14.9516309 29.9320744,14.9516309 Z" id="Shape"></path>
                    <path d="M77.0323349,67.2824414 L61.2709209,67.2824414 C60.1183256,67.2824414 59.1836837,68.2190332 59.1836837,69.3740332 L59.1836837,93.7237793 C59.1836837,94.8787793 60.1183256,95.8153711 61.2709209,95.8153711 L77.0323349,95.8153711 C78.1849302,95.8153711 79.1195721,94.8787793 79.1195721,93.7237793 L79.1195721,69.3740332 C79.1195721,68.2190332 78.1849302,67.2824414 77.0323349,67.2824414 Z M74.9450977,91.6321875 L63.3581581,91.6321875 L63.3581581,71.465625 L74.9450977,71.465625 L74.9450977,91.6321875 Z" id="Shape"></path>
                    <path d="M77.0382698,58.952373 L61.2709209,58.952373 C60.1183256,58.952373 59.1836837,59.8889648 59.1836837,61.0439648 C59.1836837,62.1989648 60.1183256,63.1355566 61.2709209,63.1355566 L77.0382698,63.1355566 C78.1908651,63.1355566 79.125507,62.1989648 79.125507,61.0439648 C79.125507,59.8889648 78.1908651,58.952373 77.0382698,58.952373 Z" id="Shape"></path>
                    <path d="M65.3150326,52.7579883 L61.2709209,52.7579883 C60.1183256,52.7579883 59.1836837,53.6945801 59.1836837,54.8495801 C59.1836837,56.0045801 60.1183256,56.9411719 61.2709209,56.9411719 L65.3150326,56.9411719 C66.4676279,56.9411719 67.4022698,56.0045801 67.4022698,54.8495801 C67.4022698,53.6945801 66.4676279,52.7579883 65.3150326,52.7579883 Z" id="Shape"></path>
                </g>
            </g>
        </g>
    </g>
</svg>